<?xml version="1.0" standalone="no"?>
<!DOCTYPE svg PUBLIC "-//W3C//DTD SVG 20010904//EN"
 "http://www.w3.org/TR/2001/REC-SVG-20010904/DTD/svg10.dtd">
<svg version="1.0" xmlns="http://www.w3.org/2000/svg"
 width="1280.000000pt" height="802.000000pt" viewBox="0 0 1280.000000 802.000000"
 preserveAspectRatio="xMidYMid meet">
<g transform="translate(0.000000,802.000000) scale(0.100000,-0.100000)"
fill="#000000" stroke="none">
<path d="M0 4015 l0 -4005 6400 0 6400 0 0 4005 0 4005 -6400 0 -6400 0 0
-4005z m1378 3963 c9 -9 12 -529 12 -2280 l0 -2268 215 0 215 0 -2 -1693 -3
-1692 -890 0 -890 0 -3 3959 c-1 2918 1 3962 9 3972 16 19 1318 21 1337 2z
m1820 0 c9 -9 12 -528 12 -2275 l0 -2263 214 0 c182 0 217 -2 230 -16 14 -14
16 -181 16 -1687 0 -920 -4 -1678 -8 -1685 -7 -10 -195 -12 -908 -10 l-899 3
0 1690 0 1690 228 3 227 2 0 2268 c0 1751 3 2271 12 2280 17 17 859 17 876 0z
m2277 -3963 l0 -3970 -890 0 -890 0 -3 1689 c-2 1345 0 1691 10 1698 7 4 106
8 221 8 l207 0 0 2269 c0 1806 3 2270 13 2274 6 3 309 5 672 4 l660 -2 0
-3970z m1359 3969 c15 -6 16 -215 16 -2270 l0 -2264 203 0 c111 0 212 -3 225
-6 l22 -6 -2 -1697 -3 -1696 -889 -3 c-705 -2 -891 0 -898 10 -12 20 -10 7895
2 7919 10 18 28 19 660 19 356 0 655 -3 664 -6z m1810 0 c15 -6 16 -216 16
-2280 l0 -2274 213 0 c116 0 218 -4 225 -8 10 -7 12 -352 10 -1693 l-3 -1684
-885 0 -885 0 -3 1696 -2 1697 22 6 c13 3 112 6 221 6 l197 0 0 2258 c0 1743
3 2261 12 2270 9 9 118 12 429 12 230 0 424 -3 433 -6z m1854 -2271 l2 -2273
214 0 c118 0 221 -3 230 -6 15 -6 16 -165 16 -1700 l0 -1694 -909 0 c-820 0
-909 2 -915 16 -11 29 -7 3334 4 3355 10 18 23 19 225 19 l215 0 0 2274 c0
1810 3 2275 13 2279 6 3 212 5 457 4 l445 -2 3 -2272z m2261 2263 c8 -10 10
-1054 9 -3972 l-3 -3959 -885 0 -885 0 -3 1689 c-2 1345 0 1691 10 1698 7 4
104 8 216 8 l202 0 0 2263 c0 1747 3 2266 12 2275 19 19 1311 17 1327 -2z"/>
</g>
</svg>
